<svg xmlns="http://www.w3.org/2000/svg" xmlns:xlink="http://www.w3.org/1999/xlink" width="300" zoomAndPan="magnify" viewBox="0 0 224.87999 225" height="300" preserveAspectRatio="xMidYMid meet" version="1.0"><defs><g/><clipPath id="94b616a1cf"><path d="M 112 2.308594 L 224.761719 2.308594 L 224.761719 177 L 112 177 Z M 112 2.308594 " clip-rule="nonzero"/></clipPath><clipPath id="20935b1e79"><path d="M 0 53 L 113 53 L 113 222.691406 L 0 222.691406 Z M 0 53 " clip-rule="nonzero"/></clipPath><clipPath id="cebd1df492"><path d="M 142 44 L 212.136719 44 L 212.136719 204.925781 L 142 204.925781 Z M 142 44 " clip-rule="nonzero"/></clipPath><clipPath id="661c239001"><path d="M 22.488281 29.519531 L 88 29.519531 L 88 189 L 22.488281 189 Z M 22.488281 29.519531 " clip-rule="nonzero"/></clipPath></defs><g clip-path="url(#94b616a1cf)"><path fill="#ffffff" d="M 112.421875 2.394531 L 114.304688 2.378906 L 115.246094 2.375 L 116.1875 2.390625 L 118.070312 2.425781 L 120.894531 2.554688 L 121.835938 2.621094 L 123.714844 2.753906 L 125.59375 2.933594 L 126.53125 3.023438 L 127.46875 3.136719 C 128.09375 3.214844 128.71875 3.289062 129.34375 3.371094 L 131.210938 3.644531 C 131.523438 3.695312 131.835938 3.734375 132.144531 3.789062 L 133.074219 3.953125 L 134.007812 4.113281 C 134.320312 4.171875 134.628906 4.214844 134.9375 4.28125 C 136.171875 4.53125 137.410156 4.765625 138.636719 5.054688 L 139.5625 5.265625 L 140.019531 5.363281 L 140.480469 5.480469 L 142.3125 5.941406 C 152.152344 8.535156 161.453125 12.417969 170.21875 17.582031 C 171.304688 18.238281 172.394531 18.882812 173.453125 19.578125 C 174.53125 20.246094 175.574219 20.964844 176.628906 21.671875 C 177.152344 22.027344 177.664062 22.402344 178.183594 22.765625 L 178.957031 23.316406 L 179.722656 23.882812 C 180.226562 24.261719 180.742188 24.636719 181.246094 25.019531 L 182.746094 26.191406 C 184.726562 27.777344 186.675781 29.410156 188.542969 31.128906 L 189.246094 31.769531 C 189.480469 31.984375 189.707031 32.207031 189.9375 32.425781 L 191.316406 33.738281 C 192.214844 34.640625 193.128906 35.523438 193.996094 36.457031 C 201.078125 43.863281 207.023438 52.09375 211.828125 61.144531 C 216.601562 70.15625 220.25 79.800781 222.472656 89.808594 L 222.863281 91.6875 L 223.054688 92.628906 L 223.226562 93.574219 L 223.558594 95.46875 L 223.84375 97.367188 C 223.886719 97.6875 223.945312 98 223.980469 98.320312 L 224.097656 99.273438 C 224.171875 99.910156 224.257812 100.546875 224.320312 101.183594 L 224.5 103.097656 C 224.527344 103.414062 224.566406 103.734375 224.582031 104.054688 L 224.644531 105.011719 C 224.683594 105.652344 224.730469 106.292969 224.761719 106.933594 L 224.828125 108.851562 C 224.835938 109.171875 224.855469 109.492188 224.855469 109.8125 L 224.863281 110.773438 C 224.867188 111.414062 224.878906 112.054688 224.871094 112.695312 C 224.851562 115.257812 224.722656 117.816406 224.515625 120.371094 C 224.304688 122.921875 224 125.464844 223.601562 127.992188 C 223.203125 130.519531 222.710938 133.03125 222.125 135.519531 C 221.542969 138.011719 220.878906 140.476562 220.113281 142.910156 L 219.519531 144.730469 C 219.421875 145.035156 219.316406 145.335938 219.210938 145.636719 L 218.894531 146.542969 L 218.738281 146.992188 L 218.570312 147.441406 L 218.238281 148.335938 C 218.019531 148.933594 217.78125 149.527344 217.546875 150.121094 C 215.671875 154.847656 213.449219 159.410156 210.878906 163.800781 C 209.59375 165.984375 208.234375 168.117188 206.792969 170.191406 C 205.351562 172.265625 203.832031 174.28125 202.226562 176.21875 L 201.816406 175.925781 C 203.105469 173.777344 204.347656 171.609375 205.519531 169.414062 C 206.691406 167.214844 207.800781 164.988281 208.839844 162.738281 C 210.914062 158.242188 212.703125 153.636719 214.203125 148.917969 C 214.386719 148.332031 214.578125 147.742188 214.75 147.152344 L 215.011719 146.265625 L 215.144531 145.824219 L 215.265625 145.378906 C 215.425781 144.785156 215.601562 144.195312 215.757812 143.601562 L 216.222656 141.816406 C 216.808594 139.429688 217.335938 137.027344 217.773438 134.613281 C 218.210938 132.199219 218.585938 129.773438 218.867188 127.339844 L 219.070312 125.515625 C 219.132812 124.90625 219.183594 124.296875 219.238281 123.6875 L 219.28125 123.230469 L 219.316406 122.769531 L 219.382812 121.855469 C 219.402344 121.554688 219.429688 121.246094 219.445312 120.941406 L 219.492188 120.023438 L 219.546875 119.105469 C 219.5625 118.804688 219.570312 118.496094 219.582031 118.191406 L 219.617188 117.273438 L 219.632812 116.816406 L 219.640625 116.355469 L 219.675781 114.523438 L 219.675781 112.6875 C 219.640625 110.242188 219.585938 107.796875 219.410156 105.355469 L 219.351562 104.441406 C 219.335938 104.140625 219.300781 103.832031 219.277344 103.527344 L 219.125 101.703125 C 219.097656 101.398438 219.058594 101.097656 219.023438 100.789062 L 218.921875 99.878906 L 218.824219 98.964844 C 218.789062 98.664062 218.746094 98.363281 218.707031 98.0625 L 218.472656 96.242188 L 218.210938 94.421875 L 218.074219 93.515625 L 217.914062 92.613281 L 217.59375 90.800781 C 216.683594 85.976562 215.453125 81.238281 213.902344 76.582031 C 213.527344 75.414062 213.09375 74.269531 212.679688 73.109375 C 212.464844 72.535156 212.238281 71.964844 212.015625 71.394531 L 211.679688 70.535156 L 211.324219 69.6875 C 210.394531 67.414062 209.34375 65.191406 208.25 62.988281 C 199.410156 45.417969 185.664062 30.292969 168.90625 19.726562 C 164.707031 17.078125 160.347656 14.726562 155.828125 12.675781 L 154.980469 12.289062 C 154.699219 12.15625 154.410156 12.042969 154.128906 11.917969 L 152.417969 11.1875 L 150.6875 10.496094 L 149.824219 10.152344 L 148.949219 9.832031 C 148.367188 9.617188 147.785156 9.394531 147.199219 9.1875 L 145.4375 8.585938 C 144.851562 8.375 144.257812 8.199219 143.667969 8.007812 L 142.332031 7.585938 C 142.183594 7.539062 142.03125 7.5 141.886719 7.457031 L 140.09375 6.9375 L 139.640625 6.816406 L 139.195312 6.699219 L 138.289062 6.464844 C 137.089844 6.132812 135.875 5.863281 134.667969 5.578125 C 134.367188 5.5 134.066406 5.445312 133.757812 5.375 L 132.839844 5.191406 L 131.925781 5 C 131.625 4.933594 131.316406 4.882812 131.007812 4.828125 L 129.171875 4.488281 C 128.558594 4.386719 127.941406 4.292969 127.324219 4.191406 L 126.402344 4.046875 L 125.476562 3.921875 L 123.621094 3.675781 L 121.761719 3.472656 L 120.828125 3.378906 L 119.898438 3.304688 L 118.03125 3.152344 L 116.164062 3.050781 L 115.226562 2.996094 L 114.292969 2.964844 L 112.417969 2.90625 Z M 112.421875 2.394531 " fill-opacity="1" fill-rule="nonzero"/></g><g clip-path="url(#20935b1e79)"><path fill="#ffffff" d="M 112.421875 222.605469 L 110.585938 222.621094 L 109.667969 222.625 C 109.367188 222.625 109.058594 222.617188 108.753906 222.613281 L 106.917969 222.578125 C 106.304688 222.558594 105.695312 222.527344 105.082031 222.5 C 103.859375 222.460938 102.636719 222.355469 101.417969 222.273438 C 101.113281 222.253906 100.804688 222.21875 100.5 222.191406 L 99.585938 222.105469 C 98.976562 222.046875 98.363281 221.996094 97.757812 221.914062 L 95.933594 221.691406 C 95.628906 221.660156 95.328125 221.609375 95.027344 221.566406 L 94.121094 221.433594 C 92.90625 221.265625 91.699219 221.039062 90.488281 220.828125 C 88.074219 220.371094 85.671875 219.871094 83.292969 219.253906 C 82.097656 218.964844 80.921875 218.617188 79.734375 218.289062 C 79.4375 218.210938 79.144531 218.113281 78.851562 218.027344 L 77.96875 217.753906 L 77.089844 217.484375 C 76.792969 217.394531 76.503906 217.292969 76.210938 217.195312 L 74.460938 216.609375 C 73.882812 216.410156 73.304688 216.191406 72.726562 215.984375 L 71.859375 215.667969 C 71.570312 215.5625 71.285156 215.449219 70.996094 215.335938 L 69.277344 214.664062 C 64.703125 212.808594 60.269531 210.65625 55.980469 208.210938 C 38.816406 198.453125 24.3125 183.929688 14.519531 166.628906 L 14.054688 165.824219 L 13.613281 165.007812 L 12.726562 163.367188 L 11.871094 161.710938 C 11.730469 161.433594 11.585938 161.160156 11.449219 160.878906 L 11.046875 160.039062 C 9.941406 157.8125 8.945312 155.53125 7.988281 153.234375 L 7.296875 151.5 L 7.121094 151.066406 L 6.957031 150.628906 L 6.632812 149.753906 L 6.304688 148.878906 L 6.128906 148.445312 L 5.976562 148.003906 L 5.367188 146.230469 C 4.589844 143.863281 3.859375 141.476562 3.246094 139.058594 C 1.988281 134.21875 1.09375 129.308594 0.566406 124.335938 C 0.316406 121.851562 0.125 119.359375 0.0625 116.863281 L 0.0351562 115.929688 L 0.0195312 115.460938 C 0.0195312 115.304688 0.0195312 115.148438 0.0195312 114.992188 L 0.0117188 113.121094 C 0.00390625 112.496094 0.03125 111.875 0.046875 111.25 L 0.109375 109.382812 C 0.527344 99.367188 2.347656 89.613281 5.574219 80.125 C 7.175781 75.433594 9.113281 70.882812 11.386719 66.476562 L 12.261719 64.847656 L 12.699219 64.035156 C 12.847656 63.761719 12.988281 63.488281 13.148438 63.226562 L 14.085938 61.636719 C 14.398438 61.105469 14.707031 60.574219 15.03125 60.050781 C 15.695312 59.015625 16.363281 57.984375 17.035156 56.953125 C 17.738281 55.949219 18.441406 54.941406 19.160156 53.949219 L 19.585938 54.21875 C 19.039062 55.3125 18.480469 56.394531 17.921875 57.472656 L 16.34375 60.757812 L 14.863281 64.078125 C 14.734375 64.355469 14.628906 64.636719 14.511719 64.917969 L 14.164062 65.75 L 13.476562 67.429688 C 11.699219 71.914062 10.195312 76.488281 8.972656 81.152344 C 6.53125 90.449219 5.25 99.902344 5.132812 109.515625 L 5.125 111.304688 C 5.125 111.898438 5.113281 112.496094 5.136719 113.089844 L 5.175781 114.878906 C 5.175781 115.027344 5.175781 115.179688 5.1875 115.324219 L 5.210938 115.773438 L 5.25 116.664062 L 5.292969 117.554688 L 5.3125 118 L 5.34375 118.449219 L 5.460938 120.230469 C 5.480469 120.53125 5.5 120.824219 5.53125 121.121094 L 5.613281 122.007812 L 5.691406 122.898438 C 5.71875 123.195312 5.738281 123.492188 5.777344 123.789062 C 6.28125 128.523438 7.019531 133.238281 8.082031 137.882812 C 8.585938 140.214844 9.210938 142.519531 9.875 144.8125 L 10.394531 146.523438 L 10.523438 146.949219 L 10.945312 148.226562 L 11.226562 149.074219 L 11.367188 149.5 L 11.519531 149.921875 L 12.125 151.609375 C 12.96875 153.84375 13.847656 156.070312 14.84375 158.25 L 15.210938 159.066406 C 15.335938 159.339844 15.46875 159.609375 15.597656 159.878906 L 16.375 161.496094 L 17.191406 163.09375 L 17.597656 163.894531 L 18.886719 166.261719 L 19.785156 167.816406 C 19.9375 168.074219 20.082031 168.339844 20.238281 168.59375 L 20.703125 169.359375 L 21.171875 170.128906 C 21.328125 170.382812 21.480469 170.640625 21.644531 170.894531 C 22.292969 171.898438 22.929688 172.914062 23.613281 173.902344 L 24.117188 174.644531 L 24.367188 175.019531 L 24.628906 175.382812 L 25.671875 176.847656 C 25.84375 177.097656 26.023438 177.335938 26.207031 177.574219 L 26.742188 178.296875 C 27.101562 178.773438 27.457031 179.257812 27.832031 179.726562 L 28.945312 181.140625 C 29.320312 181.609375 29.707031 182.070312 30.089844 182.535156 L 30.660156 183.226562 L 31.25 183.910156 L 32.429688 185.269531 L 33.636719 186.601562 C 33.835938 186.824219 34.039062 187.050781 34.246094 187.265625 L 34.867188 187.917969 C 36.507812 189.675781 38.234375 191.351562 39.992188 192.992188 L 41.324219 194.207031 C 41.542969 194.40625 41.773438 194.609375 42 194.804688 L 42.679688 195.394531 L 43.363281 195.988281 C 43.585938 196.1875 43.824219 196.371094 44.054688 196.566406 L 45.441406 197.71875 C 51.082031 202.300781 57.121094 206.28125 63.5625 209.648438 C 70 213.019531 76.710938 215.714844 83.691406 217.738281 C 86.011719 218.429688 88.367188 219.003906 90.734375 219.539062 C 91.917969 219.785156 93.105469 220.050781 94.300781 220.257812 L 95.195312 220.421875 C 95.496094 220.472656 95.789062 220.53125 96.089844 220.578125 L 97.890625 220.859375 C 98.492188 220.960938 99.097656 221.035156 99.691406 221.117188 L 100.597656 221.238281 C 100.898438 221.277344 101.203125 221.324219 101.503906 221.351562 C 102.710938 221.476562 103.917969 221.628906 105.132812 221.714844 C 105.734375 221.761719 106.339844 221.8125 106.949219 221.859375 L 108.769531 221.960938 C 109.070312 221.976562 109.375 221.996094 109.679688 222.011719 L 110.59375 222.039062 L 112.417969 222.101562 Z M 112.421875 222.605469 " fill-opacity="1" fill-rule="nonzero"/></g><g clip-path="url(#cebd1df492)"><path fill="#ffffff" d="M 174.726562 44.449219 L 176.023438 45.347656 L 176.667969 45.800781 L 177.304688 46.269531 L 178.570312 47.214844 L 179.808594 48.191406 L 180.429688 48.683594 L 181.035156 49.1875 L 182.25 50.210938 C 182.644531 50.558594 183.042969 50.910156 183.433594 51.261719 L 184.023438 51.792969 L 184.601562 52.335938 C 184.988281 52.699219 185.375 53.058594 185.757812 53.425781 C 186.140625 53.796875 186.507812 54.175781 186.882812 54.550781 C 187.070312 54.738281 187.261719 54.921875 187.445312 55.113281 L 187.992188 55.691406 L 188.542969 56.269531 C 188.726562 56.460938 188.914062 56.648438 189.089844 56.847656 C 189.800781 57.636719 190.515625 58.421875 191.199219 59.238281 L 191.714844 59.847656 L 191.976562 60.152344 L 192.226562 60.460938 L 193.234375 61.703125 C 198.578125 68.480469 202.832031 75.882812 206 83.90625 C 206.382812 84.914062 206.777344 85.914062 207.125 86.929688 C 207.496094 87.9375 207.820312 88.96875 208.15625 89.992188 C 208.324219 90.503906 208.464844 91.023438 208.621094 91.539062 L 208.847656 92.3125 L 209.058594 93.09375 C 209.199219 93.613281 209.34375 94.132812 209.480469 94.65625 L 209.863281 96.226562 C 210.351562 98.324219 210.796875 100.4375 211.121094 102.574219 L 211.253906 103.371094 C 211.292969 103.640625 211.328125 103.90625 211.367188 104.175781 L 211.585938 105.777344 C 211.707031 106.851562 211.84375 107.921875 211.929688 109 L 212.003906 109.808594 L 212.039062 110.210938 L 212.066406 110.617188 L 212.167969 112.234375 C 212.1875 112.503906 212.191406 112.773438 212.203125 113.042969 L 212.234375 113.851562 L 212.261719 114.664062 C 212.269531 114.933594 212.269531 115.203125 212.277344 115.472656 L 212.296875 117.097656 L 212.277344 118.71875 C 212.277344 119.257812 212.253906 119.800781 212.234375 120.339844 L 212.207031 121.152344 L 212.191406 121.554688 C 212.1875 121.691406 212.175781 121.824219 212.167969 121.960938 C 212.140625 122.5 212.101562 123.039062 212.066406 123.582031 C 212.050781 123.851562 212.027344 124.121094 212.003906 124.390625 L 211.929688 125.195312 L 211.859375 126.007812 C 211.835938 126.277344 211.800781 126.542969 211.773438 126.8125 L 211.59375 128.425781 L 211.371094 130.035156 C 211.332031 130.300781 211.300781 130.570312 211.257812 130.835938 L 211.128906 131.636719 L 210.996094 132.441406 C 210.953125 132.707031 210.914062 132.972656 210.859375 133.238281 L 210.558594 134.835938 L 210.484375 135.234375 L 210.398438 135.632812 L 210.226562 136.425781 C 210.109375 136.953125 210 137.480469 209.867188 138.007812 L 209.480469 139.585938 C 209.347656 140.109375 209.199219 140.628906 209.0625 141.152344 L 208.847656 141.9375 L 208.617188 142.714844 C 208.464844 143.234375 208.3125 143.753906 208.152344 144.269531 L 207.648438 145.816406 C 207.566406 146.070312 207.488281 146.332031 207.398438 146.585938 L 207.125 147.347656 L 206.851562 148.113281 C 206.761719 148.363281 206.671875 148.621094 206.570312 148.875 L 205.988281 150.386719 L 205.839844 150.765625 L 205.679688 151.144531 L 205.367188 151.894531 C 205.160156 152.390625 204.960938 152.894531 204.734375 153.386719 L 204.078125 154.871094 C 203.855469 155.363281 203.617188 155.847656 203.386719 156.335938 L 203.039062 157.070312 C 202.921875 157.3125 202.796875 157.550781 202.675781 157.792969 L 201.933594 159.238281 L 201.160156 160.664062 L 200.773438 161.375 L 200.371094 162.078125 L 199.558594 163.480469 L 198.707031 164.859375 C 198.566406 165.089844 198.429688 165.320312 198.28125 165.550781 L 197.84375 166.230469 L 197.402344 166.90625 C 197.253906 167.132812 197.109375 167.359375 196.957031 167.578125 L 196.035156 168.910156 C 195.882812 169.132812 195.734375 169.359375 195.574219 169.574219 L 195.097656 170.226562 C 194.777344 170.660156 194.464844 171.101562 194.140625 171.53125 L 193.160156 172.8125 C 192.992188 173.023438 192.835938 173.242188 192.664062 173.449219 L 192.160156 174.078125 C 191.824219 174.496094 191.488281 174.917969 191.136719 175.328125 C 189.75 176.972656 188.304688 178.570312 186.8125 180.113281 L 186.253906 180.695312 C 186.066406 180.886719 185.875 181.074219 185.683594 181.265625 L 185.113281 181.832031 L 184.824219 182.113281 L 184.53125 182.390625 C 184.140625 182.761719 183.753906 183.132812 183.355469 183.496094 L 182.164062 184.582031 L 180.957031 185.640625 C 180.753906 185.820312 180.550781 185.992188 180.34375 186.164062 L 179.730469 186.679688 C 179.320312 187.03125 178.898438 187.363281 178.480469 187.695312 L 177.851562 188.199219 L 177.214844 188.691406 C 176.789062 189.015625 176.367188 189.34375 175.933594 189.65625 L 175.289062 190.132812 L 174.964844 190.371094 L 174.636719 190.605469 C 174.199219 190.910156 173.765625 191.222656 173.324219 191.527344 C 172.886719 191.832031 172.4375 192.125 171.996094 192.421875 C 170.207031 193.59375 168.382812 194.703125 166.523438 195.742188 L 165.824219 196.132812 L 165.117188 196.503906 C 164.648438 196.757812 164.179688 197.007812 163.703125 197.246094 C 162.757812 197.730469 161.800781 198.195312 160.835938 198.640625 C 158.90625 199.535156 156.953125 200.359375 154.964844 201.097656 C 151.007812 202.585938 146.960938 203.753906 142.816406 204.601562 L 142.714844 204.253906 C 150.777344 201.910156 158.371094 198.519531 165.496094 194.082031 C 167.265625 192.984375 169 191.824219 170.691406 190.609375 C 172.386719 189.390625 174.03125 188.113281 175.632812 186.777344 C 177.234375 185.445312 178.792969 184.0625 180.300781 182.621094 C 181.8125 181.183594 183.265625 179.695312 184.667969 178.15625 C 186.074219 176.617188 187.429688 175.035156 188.730469 173.40625 C 190.015625 171.765625 191.285156 170.113281 192.460938 168.394531 L 192.90625 167.753906 C 193.058594 167.542969 193.195312 167.320312 193.34375 167.105469 L 194.203125 165.800781 C 194.488281 165.363281 194.757812 164.921875 195.035156 164.480469 L 195.449219 163.816406 C 195.585938 163.597656 195.714844 163.371094 195.851562 163.144531 L 196.644531 161.800781 L 197.40625 160.4375 L 197.789062 159.757812 L 198.152344 159.066406 L 198.875 157.683594 C 202.671875 150.207031 205.382812 142.359375 207.011719 134.136719 L 207.304688 132.601562 C 207.355469 132.351562 207.394531 132.089844 207.4375 131.835938 L 207.566406 131.0625 L 207.695312 130.292969 C 207.738281 130.035156 207.769531 129.777344 207.804688 129.519531 L 208.023438 127.972656 L 208.207031 126.421875 C 208.234375 126.164062 208.269531 125.90625 208.289062 125.648438 L 208.363281 124.871094 L 208.433594 124.09375 C 208.457031 123.832031 208.484375 123.574219 208.5 123.3125 L 208.605469 121.753906 C 208.613281 121.625 208.621094 121.496094 208.628906 121.367188 L 208.648438 120.976562 L 208.683594 120.195312 C 208.703125 119.675781 208.730469 119.15625 208.734375 118.632812 L 208.765625 117.074219 L 208.761719 115.511719 C 208.761719 115.25 208.761719 114.988281 208.757812 114.730469 L 208.734375 113.949219 L 208.714844 113.167969 C 208.707031 112.910156 208.703125 112.648438 208.6875 112.386719 L 208.601562 110.828125 L 208.582031 110.4375 L 208.554688 110.046875 L 208.496094 109.269531 C 207.851562 100.910156 206.105469 92.792969 203.253906 84.910156 C 200.394531 77.023438 196.523438 69.671875 191.640625 62.851562 C 186.804688 56.066406 180.996094 49.96875 174.5 44.726562 Z M 174.726562 44.449219 " fill-opacity="1" fill-rule="nonzero"/></g><g clip-path="url(#661c239001)"><path fill="#ffffff" d="M 60.082031 188.105469 L 58.816406 187.234375 L 58.183594 186.792969 C 57.976562 186.644531 57.773438 186.488281 57.566406 186.339844 L 56.328125 185.421875 C 55.921875 185.109375 55.519531 184.789062 55.117188 184.472656 C 54.710938 184.15625 54.308594 183.835938 53.917969 183.5 L 52.734375 182.511719 C 52.335938 182.175781 51.957031 181.832031 51.570312 181.488281 C 51.1875 181.148438 50.796875 180.808594 50.425781 180.453125 L 49.296875 179.394531 C 49.105469 179.21875 48.925781 179.035156 48.742188 178.851562 L 48.191406 178.304688 C 47.453125 177.582031 46.746094 176.828125 46.03125 176.078125 C 44.628906 174.558594 43.257812 173 41.960938 171.375 C 41.296875 170.578125 40.683594 169.738281 40.050781 168.914062 C 39.734375 168.5 39.4375 168.074219 39.128906 167.65625 L 38.671875 167.023438 C 38.519531 166.8125 38.378906 166.59375 38.230469 166.382812 L 37.347656 165.089844 C 37.0625 164.65625 36.78125 164.214844 36.5 163.777344 L 36.082031 163.121094 C 35.941406 162.898438 35.808594 162.675781 35.671875 162.453125 L 34.859375 161.117188 L 34.078125 159.757812 C 33.949219 159.53125 33.816406 159.308594 33.691406 159.078125 L 33.320312 158.390625 C 33.074219 157.929688 32.824219 157.464844 32.582031 157.007812 L 31.875 155.605469 C 31.757812 155.371094 31.636719 155.140625 31.523438 154.90625 L 31.1875 154.195312 L 30.851562 153.488281 C 30.742188 153.25 30.625 153.015625 30.523438 152.773438 C 30.09375 151.820312 29.667969 150.863281 29.28125 149.890625 C 26.054688 142.070312 23.980469 133.957031 23.054688 125.550781 C 22.921875 124.503906 22.84375 123.457031 22.753906 122.40625 L 22.65625 120.828125 L 22.609375 120.039062 L 22.578125 119.25 C 22.558594 118.726562 22.539062 118.199219 22.523438 117.671875 L 22.503906 116.09375 C 22.492188 115.566406 22.503906 115.039062 22.503906 114.511719 L 22.511719 113.722656 C 22.511719 113.457031 22.511719 113.195312 22.527344 112.933594 C 22.542969 112.40625 22.566406 111.878906 22.589844 111.351562 L 22.605469 110.957031 L 22.628906 110.5625 L 22.679688 109.773438 C 22.738281 108.722656 22.839844 107.675781 22.933594 106.621094 C 22.953125 106.359375 22.988281 106.097656 23.015625 105.835938 L 23.195312 104.265625 C 23.222656 104.003906 23.265625 103.742188 23.296875 103.480469 L 23.515625 101.914062 C 23.59375 101.394531 23.679688 100.875 23.765625 100.355469 L 23.902344 99.574219 L 24.050781 98.796875 L 24.351562 97.246094 L 24.6875 95.699219 C 24.746094 95.441406 24.796875 95.183594 24.863281 94.929688 L 25.050781 94.160156 C 25.175781 93.648438 25.292969 93.132812 25.429688 92.625 L 25.839844 91.097656 C 25.976562 90.585938 26.132812 90.082031 26.28125 89.578125 L 26.507812 88.824219 C 26.582031 88.570312 26.660156 88.320312 26.746094 88.066406 C 28.042969 84.054688 29.570312 80.117188 31.414062 76.328125 C 35.078125 68.707031 39.726562 61.742188 45.363281 55.4375 C 50.941406 49.191406 57.375 43.734375 64.421875 39.339844 L 65.75 38.53125 L 66.414062 38.128906 C 66.640625 37.996094 66.867188 37.875 67.09375 37.746094 L 68.449219 36.984375 L 69.125 36.605469 L 69.292969 36.511719 L 69.46875 36.425781 L 69.816406 36.246094 L 71.199219 35.539062 L 71.890625 35.1875 C 72.003906 35.128906 72.117188 35.070312 72.234375 35.015625 L 72.585938 34.847656 L 73.992188 34.191406 L 74.695312 33.871094 L 75.046875 33.707031 C 75.164062 33.65625 75.285156 33.609375 75.40625 33.558594 C 79.179688 31.90625 83.058594 30.5625 87.042969 29.527344 L 87.164062 29.867188 C 79.460938 32.59375 72.253906 36.285156 65.539062 40.941406 C 58.824219 45.597656 52.839844 51.054688 47.582031 57.308594 L 46.613281 58.484375 C 46.292969 58.878906 45.964844 59.265625 45.660156 59.667969 L 44.726562 60.875 C 44.648438 60.972656 44.570312 61.074219 44.496094 61.175781 L 44.269531 61.480469 L 43.820312 62.09375 L 43.367188 62.707031 L 43.144531 63.015625 L 42.925781 63.328125 L 42.054688 64.574219 C 41.757812 64.988281 41.488281 65.414062 41.207031 65.835938 L 40.785156 66.46875 C 40.644531 66.679688 40.503906 66.890625 40.371094 67.109375 C 38.183594 70.53125 36.234375 74.089844 34.523438 77.773438 C 33.65625 79.609375 32.882812 81.484375 32.140625 83.375 L 31.605469 84.804688 L 31.472656 85.160156 L 31.347656 85.519531 L 31.09375 86.238281 L 30.84375 86.957031 L 30.726562 87.3125 L 30.613281 87.671875 L 30.148438 89.121094 C 29.558594 91.0625 29 93.015625 28.542969 94.992188 L 28.367188 95.730469 C 28.304688 95.980469 28.257812 96.226562 28.203125 96.476562 L 27.882812 97.960938 L 27.597656 99.457031 L 27.453125 100.203125 L 27.328125 100.957031 L 27.082031 102.457031 L 26.871094 103.964844 C 26.835938 104.214844 26.796875 104.46875 26.765625 104.71875 L 26.679688 105.476562 L 26.59375 106.230469 C 26.566406 106.484375 26.53125 106.734375 26.511719 106.988281 C 26.417969 107.996094 26.316406 109.003906 26.257812 110.019531 L 26.207031 110.773438 L 26.183594 111.15625 L 26.164062 111.535156 L 26.097656 113.054688 C 26.085938 113.308594 26.082031 113.558594 26.074219 113.816406 L 26.0625 114.578125 C 26.050781 115.082031 26.035156 115.589844 26.042969 116.097656 L 26.050781 117.621094 C 26.058594 118.125 26.074219 118.632812 26.089844 119.140625 L 26.109375 119.898438 L 26.148438 120.652344 L 26.230469 122.171875 L 26.347656 123.691406 C 26.367188 123.941406 26.382812 124.195312 26.40625 124.445312 L 26.484375 125.203125 C 26.667969 127.222656 26.949219 129.234375 27.273438 131.234375 L 27.523438 132.75 C 27.5625 133 27.617188 133.246094 27.664062 133.496094 L 27.8125 134.242188 L 27.960938 134.992188 C 28.007812 135.242188 28.066406 135.484375 28.121094 135.734375 L 28.449219 137.21875 L 29 139.433594 L 29.199219 140.167969 C 29.332031 140.660156 29.460938 141.148438 29.601562 141.636719 L 30.035156 143.09375 C 30.175781 143.582031 30.335938 144.066406 30.492188 144.546875 L 30.726562 145.273438 C 30.804688 145.511719 30.882812 145.753906 30.96875 145.992188 L 31.472656 147.429688 L 31.597656 147.789062 L 31.730469 148.144531 L 32 148.855469 C 34.878906 156.503906 38.726562 163.625 43.542969 170.226562 C 44.722656 171.875 45.988281 173.46875 47.28125 175.035156 C 47.9375 175.808594 48.585938 176.589844 49.273438 177.339844 L 49.777344 177.90625 C 49.945312 178.097656 50.113281 178.289062 50.289062 178.46875 L 51.332031 179.578125 C 51.675781 179.953125 52.039062 180.3125 52.394531 180.671875 L 52.929688 181.214844 C 53.109375 181.394531 53.285156 181.578125 53.46875 181.75 C 54.207031 182.453125 54.925781 183.167969 55.683594 183.847656 C 56.0625 184.1875 56.433594 184.535156 56.8125 184.871094 L 57.960938 185.871094 C 58.15625 186.039062 58.34375 186.207031 58.539062 186.371094 L 59.128906 186.855469 L 60.304688 187.824219 Z M 60.082031 188.105469 " fill-opacity="1" fill-rule="nonzero"/></g><path fill="#ffffff" d="M 144.804688 198.367188 L 143.167969 198.882812 L 142.097656 195.46875 L 143.65625 194.945312 Z M 144.804688 198.367188 " fill-opacity="1" fill-rule="nonzero"/><path fill="#ffffff" d="M 141.523438 199.363281 L 139.867188 199.816406 L 138.945312 196.425781 L 140.527344 195.960938 Z M 141.523438 199.363281 " fill-opacity="1" fill-rule="nonzero"/><path fill="#ffffff" d="M 138.203125 200.230469 L 136.535156 200.617188 L 135.761719 197.253906 L 137.359375 196.855469 Z M 138.203125 200.230469 " fill-opacity="1" fill-rule="nonzero"/><path fill="#ffffff" d="M 134.855469 200.96875 L 133.171875 201.285156 L 132.546875 197.960938 L 134.15625 197.625 Z M 134.855469 200.96875 " fill-opacity="1" fill-rule="nonzero"/><path fill="#ffffff" d="M 131.484375 201.570312 L 129.789062 201.820312 L 129.304688 198.539062 L 130.929688 198.265625 Z M 131.484375 201.570312 " fill-opacity="1" fill-rule="nonzero"/><path fill="#ffffff" d="M 128.089844 202.035156 L 126.386719 202.21875 L 126.042969 198.984375 L 127.675781 198.777344 Z M 128.089844 202.035156 " fill-opacity="1" fill-rule="nonzero"/><path fill="#ffffff" d="M 124.679688 202.367188 L 122.972656 202.480469 L 122.761719 199.304688 L 124.402344 199.160156 Z M 124.679688 202.367188 " fill-opacity="1" fill-rule="nonzero"/><path fill="#ffffff" d="M 121.261719 202.5625 L 119.550781 202.609375 L 119.46875 199.488281 L 121.117188 199.414062 Z M 121.261719 202.5625 " fill-opacity="1" fill-rule="nonzero"/><path fill="#ffffff" d="M 117.839844 202.621094 L 116.132812 202.597656 L 116.171875 199.542969 L 117.820312 199.53125 Z M 117.839844 202.621094 " fill-opacity="1" fill-rule="nonzero"/><path fill="#ffffff" d="M 114.421875 202.542969 L 112.714844 202.449219 L 112.875 199.464844 L 114.523438 199.519531 Z M 114.421875 202.542969 " fill-opacity="1" fill-rule="nonzero"/><path fill="#ffffff" d="M 111.007812 202.324219 L 109.308594 202.167969 L 109.578125 199.253906 L 111.226562 199.378906 Z M 111.007812 202.324219 " fill-opacity="1" fill-rule="nonzero"/><path fill="#ffffff" d="M 107.609375 201.972656 L 105.914062 201.746094 L 106.296875 198.914062 L 107.9375 199.101562 Z M 107.609375 201.972656 " fill-opacity="1" fill-rule="nonzero"/><path fill="#ffffff" d="M 104.226562 201.488281 L 102.546875 201.195312 L 103.027344 198.441406 L 104.660156 198.695312 Z M 104.226562 201.488281 " fill-opacity="1" fill-rule="nonzero"/><path fill="#ffffff" d="M 100.871094 200.867188 L 99.203125 200.507812 L 99.777344 197.839844 L 101.398438 198.160156 Z M 100.871094 200.867188 " fill-opacity="1" fill-rule="nonzero"/><path fill="#ffffff" d="M 97.539062 200.113281 L 95.890625 199.6875 L 96.554688 197.109375 L 98.164062 197.492188 Z M 97.539062 200.113281 " fill-opacity="1" fill-rule="nonzero"/><path fill="#ffffff" d="M 94.246094 199.230469 L 92.613281 198.738281 L 93.359375 196.253906 L 94.953125 196.699219 Z M 94.246094 199.230469 " fill-opacity="1" fill-rule="nonzero"/><path fill="#ffffff" d="M 90.988281 198.214844 L 89.375 197.660156 L 90.199219 195.269531 L 91.777344 195.777344 Z M 90.988281 198.214844 " fill-opacity="1" fill-rule="nonzero"/><path fill="#ffffff" d="M 87.777344 197.074219 L 86.1875 196.457031 L 87.082031 194.160156 L 88.636719 194.730469 Z M 87.777344 197.074219 " fill-opacity="1" fill-rule="nonzero"/><path fill="#ffffff" d="M 84.613281 195.808594 L 83.050781 195.128906 L 84.007812 192.925781 L 85.539062 193.558594 Z M 84.613281 195.808594 " fill-opacity="1" fill-rule="nonzero"/><path fill="#ffffff" d="M 81.5 194.417969 L 79.96875 193.675781 L 80.984375 191.574219 L 82.488281 192.265625 Z M 81.5 194.417969 " fill-opacity="1" fill-rule="nonzero"/><path fill="#ffffff" d="M 78.449219 192.90625 L 76.945312 192.105469 L 78.015625 190.105469 L 79.492188 190.855469 Z M 78.449219 192.90625 " fill-opacity="1" fill-rule="nonzero"/><path fill="#ffffff" d="M 75.460938 191.277344 L 73.992188 190.417969 L 75.105469 188.515625 L 76.550781 189.324219 Z M 75.460938 191.277344 " fill-opacity="1" fill-rule="nonzero"/><path fill="#ffffff" d="M 72.539062 189.53125 L 71.105469 188.617188 L 72.257812 186.816406 L 73.671875 187.679688 Z M 72.539062 189.53125 " fill-opacity="1" fill-rule="nonzero"/><path fill="#ffffff" d="M 69.691406 187.671875 L 68.292969 186.703125 L 69.476562 185 L 70.859375 185.921875 Z M 69.691406 187.671875 " fill-opacity="1" fill-rule="nonzero"/><path fill="#ffffff" d="M 66.917969 185.703125 L 65.5625 184.679688 L 66.773438 183.078125 L 68.117188 184.050781 Z M 66.917969 185.703125 " fill-opacity="1" fill-rule="nonzero"/><path fill="#ffffff" d="M 64.226562 183.625 L 62.914062 182.550781 L 64.144531 181.046875 L 65.449219 182.074219 Z M 64.226562 183.625 " fill-opacity="1" fill-rule="nonzero"/><path fill="#ffffff" d="M 61.621094 181.445312 L 60.351562 180.316406 L 61.597656 178.914062 L 62.859375 179.996094 Z M 61.621094 181.445312 " fill-opacity="1" fill-rule="nonzero"/><path fill="#ffffff" d="M 59.105469 179.164062 L 57.882812 177.984375 L 59.136719 176.683594 L 60.355469 177.8125 Z M 59.105469 179.164062 " fill-opacity="1" fill-rule="nonzero"/><path fill="#ffffff" d="M 56.683594 176.785156 L 55.507812 175.558594 L 56.765625 174.351562 L 57.941406 175.527344 Z M 56.683594 176.785156 " fill-opacity="1" fill-rule="nonzero"/><path fill="#ffffff" d="M 54.355469 174.3125 L 53.234375 173.042969 L 54.488281 171.929688 L 55.617188 173.152344 Z M 54.355469 174.3125 " fill-opacity="1" fill-rule="nonzero"/><path fill="#ffffff" d="M 52.132812 171.75 L 51.0625 170.433594 L 52.3125 169.414062 L 53.386719 170.683594 Z M 52.132812 171.75 " fill-opacity="1" fill-rule="nonzero"/><path fill="#ffffff" d="M 50.015625 169.101562 L 48.996094 167.746094 L 50.234375 166.816406 L 51.257812 168.125 Z M 50.015625 169.101562 " fill-opacity="1" fill-rule="nonzero"/><path fill="#ffffff" d="M 48.003906 166.371094 L 47.039062 164.976562 L 48.261719 164.132812 L 49.234375 165.484375 Z M 48.003906 166.371094 " fill-opacity="1" fill-rule="nonzero"/><path fill="#ffffff" d="M 46.105469 163.5625 L 45.199219 162.132812 L 46.394531 161.375 L 47.316406 162.761719 Z M 46.105469 163.5625 " fill-opacity="1" fill-rule="nonzero"/><path fill="#ffffff" d="M 44.320312 160.683594 L 43.472656 159.21875 L 44.644531 158.539062 L 45.503906 159.964844 Z M 44.320312 160.683594 " fill-opacity="1" fill-rule="nonzero"/><path fill="#ffffff" d="M 42.652344 157.734375 L 41.863281 156.238281 L 43.003906 155.636719 L 43.808594 157.097656 Z M 42.652344 157.734375 " fill-opacity="1" fill-rule="nonzero"/><path fill="#ffffff" d="M 41.105469 154.726562 L 40.378906 153.199219 L 41.480469 152.671875 L 42.226562 154.164062 Z M 41.105469 154.726562 " fill-opacity="1" fill-rule="nonzero"/><path fill="#ffffff" d="M 39.679688 151.65625 L 39.011719 150.101562 L 40.074219 149.648438 L 40.761719 151.167969 Z M 39.679688 151.65625 " fill-opacity="1" fill-rule="nonzero"/><path fill="#ffffff" d="M 38.375 148.535156 L 37.769531 146.957031 L 38.789062 146.566406 L 39.417969 148.113281 Z M 38.375 148.535156 " fill-opacity="1" fill-rule="nonzero"/><path fill="#ffffff" d="M 37.195312 145.367188 L 36.652344 143.765625 L 37.621094 143.4375 L 38.191406 145.007812 Z M 37.195312 145.367188 " fill-opacity="1" fill-rule="nonzero"/><path fill="#ffffff" d="M 36.140625 142.15625 L 35.660156 140.539062 L 36.582031 140.265625 L 37.085938 141.855469 Z M 36.140625 142.15625 " fill-opacity="1" fill-rule="nonzero"/><path fill="#ffffff" d="M 35.214844 138.910156 L 34.796875 137.273438 L 35.664062 137.050781 L 36.105469 138.664062 Z M 35.214844 138.910156 " fill-opacity="1" fill-rule="nonzero"/><path fill="#ffffff" d="M 34.414062 135.628906 L 34.0625 133.976562 L 34.871094 133.804688 L 35.253906 135.429688 Z M 34.414062 135.628906 " fill-opacity="1" fill-rule="nonzero"/><path fill="#ffffff" d="M 33.746094 132.316406 L 33.460938 130.652344 L 34.210938 130.527344 L 34.527344 132.167969 Z M 33.746094 132.316406 " fill-opacity="1" fill-rule="nonzero"/><path fill="#ffffff" d="M 33.207031 128.984375 L 32.988281 127.3125 L 33.679688 127.222656 L 33.929688 128.875 Z M 33.207031 128.984375 " fill-opacity="1" fill-rule="nonzero"/><path fill="#ffffff" d="M 32.804688 125.636719 L 32.652344 123.957031 L 33.28125 123.898438 L 33.464844 125.5625 Z M 32.804688 125.636719 " fill-opacity="1" fill-rule="nonzero"/><path fill="#ffffff" d="M 32.535156 122.273438 L 32.449219 120.589844 L 33.015625 120.5625 L 33.132812 122.234375 Z M 32.535156 122.273438 " fill-opacity="1" fill-rule="nonzero"/><path fill="#ffffff" d="M 32.398438 118.90625 L 32.382812 117.222656 L 32.882812 117.21875 L 32.933594 118.890625 Z M 32.398438 118.90625 " fill-opacity="1" fill-rule="nonzero"/><path fill="#ffffff" d="M 32.398438 115.539062 L 32.449219 113.851562 L 32.882812 113.867188 L 32.867188 115.542969 Z M 32.398438 115.539062 " fill-opacity="1" fill-rule="nonzero"/><path fill="#ffffff" d="M 32.535156 112.171875 L 32.652344 110.492188 L 33.019531 110.515625 L 32.933594 112.191406 Z M 32.535156 112.171875 " fill-opacity="1" fill-rule="nonzero"/><path fill="#ffffff" d="M 32.800781 108.816406 L 32.988281 107.144531 L 33.289062 107.175781 L 33.136719 108.84375 Z M 32.800781 108.816406 " fill-opacity="1" fill-rule="nonzero"/><path fill="#ffffff" d="M 33.203125 105.472656 L 33.457031 103.808594 L 33.691406 103.847656 L 33.472656 105.507812 Z M 33.203125 105.472656 " fill-opacity="1" fill-rule="nonzero"/><path fill="#ffffff" d="M 33.738281 102.152344 L 34.058594 100.5 L 34.226562 100.53125 L 33.941406 102.1875 Z M 33.738281 102.152344 " fill-opacity="1" fill-rule="nonzero"/><path fill="#ffffff" d="M 34.40625 98.855469 L 34.789062 97.21875 L 34.890625 97.242188 L 34.542969 98.882812 Z M 34.40625 98.855469 " fill-opacity="1" fill-rule="nonzero"/><path fill="#ffffff" d="M 35.203125 95.589844 L 35.648438 93.96875 L 35.6875 93.980469 L 35.273438 95.609375 Z M 35.203125 95.589844 " fill-opacity="1" fill-rule="nonzero"/><path fill="#ffffff" d="M 36.128906 92.359375 L 36.261719 91.933594 L 36.136719 92.359375 Z M 36.128906 92.359375 " fill-opacity="1" fill-rule="nonzero"/><path fill="#ffffff" d="M 89.792969 34.449219 L 91.429688 33.933594 L 92.5 37.347656 L 90.941406 37.871094 Z M 89.792969 34.449219 " fill-opacity="1" fill-rule="nonzero"/><path fill="#ffffff" d="M 93.074219 33.453125 L 94.730469 33.003906 L 95.648438 36.390625 L 94.070312 36.855469 Z M 93.074219 33.453125 " fill-opacity="1" fill-rule="nonzero"/><path fill="#ffffff" d="M 96.390625 32.585938 L 98.0625 32.203125 L 98.832031 35.558594 L 97.238281 35.960938 Z M 96.390625 32.585938 " fill-opacity="1" fill-rule="nonzero"/><path fill="#ffffff" d="M 99.742188 31.851562 L 101.425781 31.535156 L 102.050781 34.851562 L 100.4375 35.191406 Z M 99.742188 31.851562 " fill-opacity="1" fill-rule="nonzero"/><path fill="#ffffff" d="M 103.113281 31.25 L 104.808594 31 L 105.292969 34.273438 L 103.667969 34.546875 Z M 103.113281 31.25 " fill-opacity="1" fill-rule="nonzero"/><path fill="#ffffff" d="M 106.507812 30.785156 L 108.210938 30.601562 L 108.554688 33.824219 L 106.921875 34.035156 Z M 106.507812 30.785156 " fill-opacity="1" fill-rule="nonzero"/><path fill="#ffffff" d="M 109.914062 30.453125 L 111.625 30.339844 L 111.835938 33.507812 L 110.191406 33.648438 Z M 109.914062 30.453125 " fill-opacity="1" fill-rule="nonzero"/><path fill="#ffffff" d="M 113.332031 30.261719 L 115.042969 30.214844 L 115.125 33.320312 L 113.480469 33.398438 Z M 113.332031 30.261719 " fill-opacity="1" fill-rule="nonzero"/><path fill="#ffffff" d="M 116.753906 30.203125 L 118.464844 30.226562 L 118.425781 33.265625 L 116.773438 33.277344 Z M 116.753906 30.203125 " fill-opacity="1" fill-rule="nonzero"/><path fill="#ffffff" d="M 120.175781 30.28125 L 121.882812 30.375 L 121.722656 33.34375 L 120.074219 33.289062 Z M 120.175781 30.28125 " fill-opacity="1" fill-rule="nonzero"/><path fill="#ffffff" d="M 123.585938 30.5 L 125.289062 30.660156 L 125.015625 33.550781 L 123.371094 33.429688 Z M 123.585938 30.5 " fill-opacity="1" fill-rule="nonzero"/><path fill="#ffffff" d="M 126.984375 30.851562 L 128.679688 31.078125 L 128.300781 33.890625 L 126.660156 33.707031 Z M 126.984375 30.851562 " fill-opacity="1" fill-rule="nonzero"/><path fill="#ffffff" d="M 130.367188 31.339844 L 132.050781 31.632812 L 131.570312 34.363281 L 129.9375 34.113281 Z M 130.367188 31.339844 " fill-opacity="1" fill-rule="nonzero"/><path fill="#ffffff" d="M 133.726562 31.960938 L 135.394531 32.320312 L 134.820312 34.964844 L 133.199219 34.648438 Z M 133.726562 31.960938 " fill-opacity="1" fill-rule="nonzero"/><path fill="#ffffff" d="M 137.054688 32.714844 L 138.707031 33.140625 L 138.046875 35.695312 L 136.4375 35.3125 Z M 137.054688 32.714844 " fill-opacity="1" fill-rule="nonzero"/><path fill="#ffffff" d="M 140.347656 33.597656 L 141.980469 34.089844 L 141.238281 36.550781 L 139.648438 36.105469 Z M 140.347656 33.597656 " fill-opacity="1" fill-rule="nonzero"/><path fill="#ffffff" d="M 143.601562 34.613281 L 145.214844 35.167969 L 144.398438 37.535156 L 142.824219 37.027344 Z M 143.601562 34.613281 " fill-opacity="1" fill-rule="nonzero"/><path fill="#ffffff" d="M 146.816406 35.753906 L 148.402344 36.375 L 147.519531 38.644531 L 145.964844 38.074219 Z M 146.816406 35.753906 " fill-opacity="1" fill-rule="nonzero"/><path fill="#ffffff" d="M 149.976562 37.023438 L 151.539062 37.703125 L 150.59375 39.875 L 149.0625 39.242188 Z M 149.976562 37.023438 " fill-opacity="1" fill-rule="nonzero"/><path fill="#ffffff" d="M 153.085938 38.414062 L 154.621094 39.152344 L 153.621094 41.226562 L 152.113281 40.535156 Z M 153.085938 38.414062 " fill-opacity="1" fill-rule="nonzero"/><path fill="#ffffff" d="M 156.140625 39.925781 L 157.640625 40.726562 L 156.589844 42.695312 L 155.113281 41.945312 Z M 156.140625 39.925781 " fill-opacity="1" fill-rule="nonzero"/><path fill="#ffffff" d="M 159.125 41.554688 L 160.59375 42.414062 L 159.503906 44.285156 L 158.054688 43.476562 Z M 159.125 41.554688 " fill-opacity="1" fill-rule="nonzero"/><path fill="#ffffff" d="M 162.046875 43.300781 L 163.480469 44.21875 L 162.351562 45.984375 L 160.933594 45.121094 Z M 162.046875 43.300781 " fill-opacity="1" fill-rule="nonzero"/><path fill="#ffffff" d="M 164.894531 45.160156 L 166.289062 46.132812 L 165.128906 47.800781 L 163.75 46.878906 Z M 164.894531 45.160156 " fill-opacity="1" fill-rule="nonzero"/><path fill="#ffffff" d="M 167.664062 47.128906 L 169.023438 48.15625 L 167.835938 49.722656 L 166.492188 48.746094 Z M 167.664062 47.128906 " fill-opacity="1" fill-rule="nonzero"/><path fill="#ffffff" d="M 170.355469 49.207031 L 171.667969 50.285156 L 170.464844 51.75 L 169.160156 50.722656 Z M 170.355469 49.207031 " fill-opacity="1" fill-rule="nonzero"/><path fill="#ffffff" d="M 172.960938 51.386719 L 174.230469 52.515625 L 173.011719 53.882812 L 171.75 52.804688 Z M 172.960938 51.386719 " fill-opacity="1" fill-rule="nonzero"/><path fill="#ffffff" d="M 175.476562 53.671875 L 176.699219 54.847656 L 175.476562 56.117188 L 174.253906 54.988281 Z M 175.476562 53.671875 " fill-opacity="1" fill-rule="nonzero"/><path fill="#ffffff" d="M 177.898438 56.050781 L 179.070312 57.273438 L 177.847656 58.445312 L 176.671875 57.269531 Z M 177.898438 56.050781 " fill-opacity="1" fill-rule="nonzero"/><path fill="#ffffff" d="M 180.222656 58.523438 L 181.34375 59.792969 L 180.125 60.871094 L 179 59.648438 Z M 180.222656 58.523438 " fill-opacity="1" fill-rule="nonzero"/><path fill="#ffffff" d="M 182.441406 61.085938 L 183.515625 62.398438 L 182.304688 63.382812 L 181.226562 62.117188 Z M 182.441406 61.085938 " fill-opacity="1" fill-rule="nonzero"/><path fill="#ffffff" d="M 184.558594 63.734375 L 185.578125 65.085938 L 184.386719 65.984375 L 183.359375 64.675781 Z M 184.558594 63.734375 " fill-opacity="1" fill-rule="nonzero"/><path fill="#ffffff" d="M 186.570312 66.460938 L 187.53125 67.855469 L 186.359375 68.667969 L 185.386719 67.316406 Z M 186.570312 66.460938 " fill-opacity="1" fill-rule="nonzero"/><path fill="#ffffff" d="M 188.46875 69.269531 L 189.375 70.699219 L 188.226562 71.425781 L 187.304688 70.039062 Z M 188.46875 69.269531 " fill-opacity="1" fill-rule="nonzero"/><path fill="#ffffff" d="M 190.25 72.148438 L 191.097656 73.613281 L 189.980469 74.261719 L 189.117188 72.835938 Z M 190.25 72.148438 " fill-opacity="1" fill-rule="nonzero"/><path fill="#ffffff" d="M 191.914062 75.097656 L 192.703125 76.59375 L 191.621094 77.164062 L 190.8125 75.703125 Z M 191.914062 75.097656 " fill-opacity="1" fill-rule="nonzero"/><path fill="#ffffff" d="M 193.460938 78.105469 L 194.191406 79.632812 L 193.144531 80.128906 L 192.398438 78.640625 Z M 193.460938 78.105469 " fill-opacity="1" fill-rule="nonzero"/><path fill="#ffffff" d="M 194.886719 81.171875 L 195.554688 82.726562 L 194.550781 83.15625 L 193.863281 81.636719 Z M 194.886719 81.171875 " fill-opacity="1" fill-rule="nonzero"/><path fill="#ffffff" d="M 196.191406 84.292969 L 196.792969 85.871094 L 195.839844 86.238281 L 195.210938 84.691406 Z M 196.191406 84.292969 " fill-opacity="1" fill-rule="nonzero"/><path fill="#ffffff" d="M 197.367188 87.460938 L 197.910156 89.058594 L 197.003906 89.367188 L 196.4375 87.796875 Z M 197.367188 87.460938 " fill-opacity="1" fill-rule="nonzero"/><path fill="#ffffff" d="M 198.421875 90.671875 L 198.898438 92.289062 L 198.050781 92.542969 L 197.542969 90.949219 Z M 198.421875 90.671875 " fill-opacity="1" fill-rule="nonzero"/><path fill="#ffffff" d="M 199.347656 93.917969 L 199.761719 95.554688 L 198.96875 95.757812 L 198.523438 94.144531 Z M 199.347656 93.917969 " fill-opacity="1" fill-rule="nonzero"/><path fill="#ffffff" d="M 200.148438 97.199219 L 200.496094 98.847656 L 199.761719 99.003906 L 199.378906 97.375 Z M 200.148438 97.199219 " fill-opacity="1" fill-rule="nonzero"/><path fill="#ffffff" d="M 200.8125 100.503906 L 201.097656 102.167969 L 200.421875 102.285156 L 200.105469 100.640625 Z M 200.8125 100.503906 " fill-opacity="1" fill-rule="nonzero"/><path fill="#ffffff" d="M 201.351562 103.835938 L 201.570312 105.507812 L 200.953125 105.589844 L 200.707031 103.933594 Z M 201.351562 103.835938 " fill-opacity="1" fill-rule="nonzero"/><path fill="#ffffff" d="M 201.753906 107.183594 L 201.90625 108.863281 L 201.355469 108.914062 L 201.171875 107.25 Z M 201.753906 107.183594 " fill-opacity="1" fill-rule="nonzero"/><path fill="#ffffff" d="M 202.023438 110.542969 L 202.105469 112.226562 L 201.621094 112.25 L 201.503906 110.582031 Z M 202.023438 110.542969 " fill-opacity="1" fill-rule="nonzero"/><path fill="#ffffff" d="M 202.15625 113.910156 L 202.171875 115.59375 L 201.753906 115.597656 L 201.707031 113.925781 Z M 202.15625 113.910156 " fill-opacity="1" fill-rule="nonzero"/><path fill="#ffffff" d="M 202.15625 117.277344 L 202.105469 118.960938 L 201.753906 118.949219 L 201.773438 117.273438 Z M 202.15625 117.277344 " fill-opacity="1" fill-rule="nonzero"/><path fill="#ffffff" d="M 202.019531 120.644531 L 201.902344 122.320312 L 201.621094 122.300781 L 201.703125 120.628906 Z M 202.019531 120.644531 " fill-opacity="1" fill-rule="nonzero"/><path fill="#ffffff" d="M 201.75 123.996094 L 201.566406 125.667969 L 201.351562 125.644531 L 201.503906 123.976562 Z M 201.75 123.996094 " fill-opacity="1" fill-rule="nonzero"/><path fill="#ffffff" d="M 201.347656 127.335938 L 201.097656 129 L 200.949219 128.976562 L 201.167969 127.3125 Z M 201.347656 127.335938 " fill-opacity="1" fill-rule="nonzero"/><path fill="#ffffff" d="M 200.8125 130.65625 L 200.496094 132.308594 L 200.414062 132.292969 L 200.699219 130.636719 Z M 200.8125 130.65625 " fill-opacity="1" fill-rule="nonzero"/><path fill="#ffffff" d="M 200.144531 133.953125 L 199.761719 135.585938 L 199.75 135.585938 L 200.097656 133.941406 Z M 200.144531 133.953125 " fill-opacity="1" fill-rule="nonzero"/><path fill="#ffffff" d="M 51.75 160.335938 C 47.429688 154.554688 43.976562 148.085938 41.488281 141.238281 C 38.992188 134.316406 37.523438 127.183594 37.078125 119.835938 C 37.035156 118.921875 36.980469 118.007812 36.96875 117.089844 C 36.933594 116.175781 36.945312 115.257812 36.941406 114.339844 C 36.941406 113.882812 36.960938 113.425781 36.972656 112.964844 L 36.992188 112.277344 L 37.023438 111.589844 C 37.046875 111.132812 37.070312 110.675781 37.097656 110.214844 L 37.199219 108.84375 C 37.351562 107.015625 37.546875 105.1875 37.839844 103.375 L 37.941406 102.691406 C 37.976562 102.464844 38.019531 102.238281 38.058594 102.011719 L 38.296875 100.65625 C 38.480469 99.757812 38.648438 98.851562 38.859375 97.957031 L 39.011719 97.285156 L 39.085938 96.949219 L 39.171875 96.613281 L 39.507812 95.277344 C 39.558594 95.054688 39.625 94.835938 39.6875 94.613281 L 39.871094 93.949219 L 40.058594 93.285156 C 40.121094 93.0625 40.191406 92.84375 40.257812 92.625 L 40.660156 91.304688 L 41.097656 90 C 41.238281 89.5625 41.398438 89.128906 41.550781 88.695312 L 41.785156 88.046875 C 41.863281 87.828125 41.941406 87.613281 42.023438 87.398438 L 42.527344 86.113281 C 42.613281 85.898438 42.695312 85.6875 42.789062 85.476562 L 43.320312 84.203125 C 43.40625 83.988281 43.507812 83.78125 43.601562 83.570312 L 44.164062 82.3125 L 44.753906 81.0625 C 44.855469 80.855469 44.949219 80.644531 45.054688 80.441406 L 45.363281 79.824219 L 45.675781 79.210938 C 45.78125 79.003906 45.882812 78.796875 45.992188 78.597656 L 46.648438 77.382812 C 47.542969 75.773438 48.472656 74.183594 49.480469 72.644531 L 49.851562 72.0625 L 50.238281 71.492188 C 50.496094 71.109375 50.75 70.726562 51.011719 70.347656 C 51.546875 69.601562 52.070312 68.839844 52.632812 68.113281 C 54.84375 65.167969 57.253906 62.394531 59.855469 59.785156 L 60.84375 58.824219 L 61.339844 58.34375 L 61.84375 57.875 L 62.855469 56.941406 L 63.890625 56.035156 C 64.0625 55.882812 64.234375 55.730469 64.410156 55.582031 L 64.9375 55.140625 C 65.292969 54.847656 65.644531 54.550781 66 54.261719 L 67.082031 53.410156 C 67.265625 53.269531 67.441406 53.125 67.625 52.992188 L 68.179688 52.578125 C 68.546875 52.304688 68.910156 52.027344 69.285156 51.757812 L 70.40625 50.964844 C 70.59375 50.832031 70.777344 50.695312 70.96875 50.570312 L 71.546875 50.1875 C 71.929688 49.933594 72.300781 49.671875 72.691406 49.429688 L 75.03125 47.984375 L 75.324219 47.800781 L 75.621094 47.632812 L 76.21875 47.296875 L 77.414062 46.621094 L 78.011719 46.285156 C 78.210938 46.175781 78.417969 46.074219 78.621094 45.96875 L 79.84375 45.34375 C 80.253906 45.136719 80.65625 44.921875 81.070312 44.722656 L 82.3125 44.140625 L 83.558594 43.5625 C 83.660156 43.515625 83.765625 43.464844 83.871094 43.417969 L 84.1875 43.289062 L 84.820312 43.023438 L 86.089844 42.503906 L 86.722656 42.242188 L 87.367188 42.007812 L 88.65625 41.535156 L 89.296875 41.300781 L 89.621094 41.183594 L 89.945312 41.078125 L 92.550781 40.238281 L 95.1875 39.511719 L 95.515625 39.417969 C 95.625 39.390625 95.738281 39.367188 95.851562 39.339844 L 96.515625 39.183594 L 97.847656 38.875 C 104.964844 37.335938 112.273438 36.757812 119.46875 37.324219 L 119.460938 37.523438 C 112.238281 37.355469 105.121094 38.160156 98.113281 39.933594 L 96.8125 40.277344 L 96.160156 40.445312 C 96.050781 40.472656 95.945312 40.5 95.835938 40.527344 L 95.515625 40.625 L 92.9375 41.417969 L 90.398438 42.304688 L 90.078125 42.414062 L 89.765625 42.542969 L 89.140625 42.796875 L 87.886719 43.289062 C 84.558594 44.648438 81.335938 46.222656 78.214844 48.011719 L 77.054688 48.691406 L 76.476562 49.035156 L 76.1875 49.203125 L 75.902344 49.382812 L 73.636719 50.839844 C 73.261719 51.089844 72.894531 51.34375 72.523438 51.601562 L 71.972656 51.984375 C 71.785156 52.109375 71.605469 52.246094 71.425781 52.378906 L 70.332031 53.171875 C 69.972656 53.4375 69.617188 53.714844 69.261719 53.988281 L 68.730469 54.398438 C 68.550781 54.53125 68.378906 54.675781 68.203125 54.816406 L 67.15625 55.664062 C 66.808594 55.949219 66.472656 56.242188 66.128906 56.535156 L 65.617188 56.96875 C 65.449219 57.117188 65.28125 57.265625 65.113281 57.417969 L 64.109375 58.316406 L 63.128906 59.238281 L 62.640625 59.699219 L 62.160156 60.171875 L 61.214844 61.121094 C 59.957031 62.402344 58.746094 63.726562 57.578125 65.089844 C 56.410156 66.453125 55.289062 67.855469 54.21875 69.296875 C 53.148438 70.738281 52.125 72.214844 51.15625 73.722656 C 50.183594 75.234375 49.265625 76.777344 48.398438 78.347656 C 47.535156 79.921875 46.722656 81.523438 45.964844 83.152344 C 45.210938 84.78125 44.511719 86.433594 43.867188 88.109375 C 43.222656 89.785156 42.636719 91.480469 42.109375 93.195312 C 41.582031 94.914062 41.113281 96.644531 40.703125 98.394531 C 40.292969 100.140625 39.945312 101.902344 39.652344 103.671875 C 39.363281 105.445312 39.136719 107.226562 38.96875 109.011719 C 38.800781 110.800781 38.695312 112.589844 38.648438 114.386719 C 38.601562 116.179688 38.617188 117.976562 38.695312 119.769531 C 38.769531 121.5625 38.910156 123.351562 39.109375 125.136719 C 39.308594 126.921875 39.566406 128.699219 39.886719 130.464844 C 40.207031 132.230469 40.585938 133.984375 41.027344 135.726562 C 41.46875 137.464844 41.964844 139.191406 42.523438 140.898438 C 44.746094 147.726562 47.941406 154.234375 51.917969 160.21875 Z M 51.75 160.335938 " fill-opacity="1" fill-rule="nonzero"/><path fill="#ffffff" d="M 183.015625 72.3125 L 183.792969 73.378906 L 184.179688 73.914062 C 184.308594 74.089844 184.433594 74.273438 184.554688 74.457031 L 185.300781 75.546875 C 185.542969 75.914062 185.78125 76.285156 186.019531 76.652344 C 186.261719 77.023438 186.5 77.394531 186.722656 77.773438 L 187.40625 78.90625 C 187.632812 79.285156 187.84375 79.671875 188.0625 80.054688 C 188.285156 80.4375 188.503906 80.820312 188.710938 81.210938 C 192.113281 87.492188 194.574219 94.121094 196.09375 101.101562 L 196.359375 102.410156 C 196.40625 102.628906 196.453125 102.847656 196.496094 103.066406 L 196.609375 103.722656 C 196.6875 104.160156 196.769531 104.601562 196.839844 105.039062 L 197.039062 106.363281 C 197.109375 106.800781 197.164062 107.246094 197.21875 107.6875 L 197.304688 108.351562 C 197.332031 108.570312 197.363281 108.792969 197.382812 109.015625 C 197.472656 109.902344 197.566406 110.789062 197.625 111.679688 L 197.675781 112.351562 L 197.699219 112.6875 L 197.714844 113.023438 L 197.785156 114.355469 C 197.796875 114.578125 197.800781 114.800781 197.804688 115.027344 L 197.824219 115.699219 C 197.835938 116.144531 197.851562 116.59375 197.847656 117.039062 L 197.847656 118.382812 C 197.839844 118.828125 197.824219 119.277344 197.8125 119.726562 L 197.796875 120.398438 L 197.761719 121.070312 L 197.695312 122.414062 L 197.59375 123.75 C 197.578125 123.976562 197.566406 124.199219 197.542969 124.421875 L 197.476562 125.089844 C 197.429688 125.535156 197.390625 125.980469 197.339844 126.425781 L 197.171875 127.757812 C 196.925781 129.53125 196.644531 131.296875 196.28125 133.046875 C 196.113281 133.929688 195.902344 134.800781 195.707031 135.671875 L 195.375 136.949219 L 195.207031 137.601562 L 195.023438 138.246094 C 194.902344 138.675781 194.785156 139.109375 194.660156 139.539062 L 194.269531 140.824219 C 194.140625 141.253906 193.996094 141.679688 193.855469 142.105469 L 193.644531 142.742188 C 193.574219 142.957031 193.503906 143.167969 193.429688 143.378906 L 192.972656 144.636719 L 192.855469 144.953125 L 192.734375 145.265625 L 192.488281 145.894531 C 192.171875 146.734375 191.816406 147.554688 191.472656 148.382812 C 191.300781 148.796875 191.109375 149.203125 190.929688 149.613281 L 190.65625 150.226562 C 190.566406 150.429688 190.464844 150.632812 190.371094 150.832031 L 189.792969 152.046875 C 189.59375 152.449219 189.390625 152.847656 189.183594 153.246094 L 188.878906 153.847656 L 188.558594 154.433594 L 187.917969 155.613281 L 187.246094 156.78125 C 187.132812 156.976562 187.027344 157.171875 186.910156 157.363281 L 186.5625 157.9375 C 185.644531 159.476562 184.652344 160.972656 183.628906 162.445312 L 182.652344 163.8125 L 182.449219 164.078125 L 182.042969 164.617188 L 181.636719 165.152344 L 181.433594 165.417969 L 181.226562 165.683594 L 180.386719 166.734375 C 179.25 168.121094 178.089844 169.488281 176.859375 170.785156 C 171.960938 176.039062 166.441406 180.523438 160.300781 184.246094 C 154.164062 187.96875 147.632812 190.785156 140.710938 192.699219 C 133.867188 194.566406 126.789062 195.488281 119.757812 195.320312 L 119.75 195.121094 C 126.785156 194.890625 133.667969 193.742188 140.394531 191.671875 C 147.121094 189.601562 153.457031 186.683594 159.402344 182.921875 L 160.503906 182.207031 C 160.871094 181.96875 161.242188 181.738281 161.597656 181.484375 L 162.675781 180.742188 C 162.859375 180.617188 163.035156 180.488281 163.210938 180.359375 L 163.738281 179.976562 L 164.269531 179.589844 L 164.535156 179.394531 L 164.796875 179.195312 L 165.835938 178.398438 C 166.1875 178.136719 166.519531 177.851562 166.859375 177.582031 L 167.371094 177.167969 C 167.539062 177.03125 167.710938 176.894531 167.875 176.746094 C 170.5625 174.503906 173.089844 172.089844 175.453125 169.503906 C 176.640625 168.222656 177.765625 166.882812 178.863281 165.523438 L 179.878906 164.234375 L 180.074219 163.972656 L 180.464844 163.445312 L 180.855469 162.921875 L 181.050781 162.65625 L 181.242188 162.390625 L 181.996094 161.320312 C 182.988281 159.878906 183.953125 158.417969 184.839844 156.914062 L 185.175781 156.351562 C 185.289062 156.164062 185.394531 155.972656 185.503906 155.785156 L 186.152344 154.648438 L 186.777344 153.492188 L 187.085938 152.914062 L 187.382812 152.328125 L 187.976562 151.160156 L 188.542969 149.976562 C 188.636719 149.777344 188.734375 149.582031 188.824219 149.382812 L 189.09375 148.785156 C 189.269531 148.386719 189.457031 147.992188 189.625 147.589844 C 189.960938 146.78125 190.3125 145.980469 190.625 145.164062 L 190.863281 144.554688 L 190.984375 144.25 L 191.097656 143.941406 L 191.546875 142.710938 C 191.625 142.503906 191.691406 142.296875 191.761719 142.089844 L 191.972656 141.46875 C 192.113281 141.054688 192.257812 140.644531 192.382812 140.226562 L 192.773438 138.972656 C 192.898438 138.554688 193.015625 138.132812 193.136719 137.714844 L 193.316406 137.082031 L 193.484375 136.449219 L 193.816406 135.179688 L 194.117188 133.902344 C 194.164062 133.691406 194.21875 133.480469 194.265625 133.265625 L 194.398438 132.621094 C 194.769531 130.914062 195.0625 129.1875 195.320312 127.460938 L 195.5 126.160156 C 195.558594 125.726562 195.601562 125.292969 195.652344 124.859375 L 195.722656 124.207031 C 195.75 123.988281 195.765625 123.773438 195.785156 123.554688 L 195.902344 122.246094 C 196.3125 117 196.191406 111.761719 195.546875 106.539062 C 194.898438 101.3125 193.734375 96.207031 192.054688 91.21875 C 191.511719 89.554688 190.886719 87.921875 190.230469 86.296875 C 189.890625 85.492188 189.558594 84.683594 189.191406 83.890625 L 188.921875 83.292969 C 188.828125 83.09375 188.742188 82.890625 188.644531 82.695312 L 188.074219 81.515625 C 187.890625 81.117188 187.683594 80.730469 187.488281 80.339844 C 187.289062 79.945312 187.089844 79.558594 186.882812 79.175781 C 186.464844 78.40625 186.054688 77.632812 185.605469 76.878906 C 185.386719 76.503906 185.171875 76.125 184.945312 75.746094 L 184.261719 74.636719 C 184.144531 74.449219 184.035156 74.261719 183.917969 74.078125 L 183.558594 73.527344 L 182.84375 72.425781 Z M 183.015625 72.3125 " fill-opacity="1" fill-rule="nonzero"/><g fill="#ffffff" fill-opacity="1"><g transform="translate(67.48944, 117.970175)"><g><path d="M 60.515625 0 L 42.84375 0 L 28.65625 -20.4375 L 14.46875 0 L -2.46875 0 L 20.21875 -32.296875 L 1.3125 -60 L 17.609375 -60 L 28.65625 -43.640625 L 39.71875 -60 L 56.734375 -60 L 37.09375 -32.296875 Z M 60.515625 0 "/></g></g></g><g fill="#ffffff" fill-opacity="1"><g transform="translate(94.243496, 176.136141)"><g><path d="M 50.40625 0 L 40.796875 -33.671875 L 31.203125 0 L 16 0 L -1.09375 -60 L 14.109375 -60 L 24.359375 -18.84375 L 24.734375 -18.84375 L 35.640625 -60 L 45.96875 -60 L 56.875 -18.84375 L 57.234375 -18.84375 L 67.5 -60 L 82.625 -60 L 65.53125 0 Z M 50.40625 0 "/></g></g></g></svg>